<?xml version="1.0" encoding="UTF-8"?>
<svg width="20px" height="20px" viewBox="0 0 20 20" version="1.1" xmlns="http://www.w3.org/2000/svg" xmlns:xlink="http://www.w3.org/1999/xlink">
    <!-- Generator: Sketch 61.2 (89653) - https://sketch.com -->
    <title>Spinner</title>
    <desc>Created with Sketch.</desc>
    <g id="Symbols" stroke="none" stroke-width="1" fill="none" fill-rule="evenodd">
        <g id="Action-Button-Checking" transform="translate(-115.000000, -14.000000)" fill="">
            <g id="Controls-/-Progress-Indicator-/-Light-/-Indeterminate-Spinner-with-Label" transform="translate(114.000000, 13.000000)">
                <g id="Label" transform="translate(0.757333, 0.000000)">
                    <g id="Group" transform="translate(65.742667, 11.000000) rotate(180.000000) translate(-65.742667, -11.000000) translate(0.242667, 0.000000)">
                        <g id="Group-2" transform="translate(0.000000, 0.000000)">
                            <g id="Controls-/-Progress-Indicator-/-Light-/-Indeterminate-Spinner---Small" transform="translate(121.000000, 11.000000) rotate(-180.000000) translate(-121.000000, -11.000000) translate(111.000000, 1.000000)">
                                <path d="M5,10 C5,9.448 4.552,9 4,9 L1,9 C0.448,9 0,9.448 0,10 C0,10.552 0.448,11 1,11 L4,11 C4.552,11 5,10.552 5,10 L5,10 Z M19,9 L16,9 C15.448,9 15,9.448 15,10 C15,10.552 15.448,11 16,11 L19,11 C19.552,11 20,10.552 20,10 C20,9.448 19.552,9 19,9 L19,9 Z M10,15 C9.448,15 9,15.448 9,16 L9,19 C9,19.553 9.448,20 10,20 C10.552,20 11,19.553 11,19 L11,16 C11,15.448 10.552,15 10,15 L10,15 Z M10,0 C9.448,0 9,0.448 9,1 L9,4 C9,4.552 9.448,5 10,5 C10.552,5 11,4.552 11,4 L11,1 C11,0.448 10.552,0 10,0 L10,0 Z M6.366,1.706 C6.09,1.228 5.479,1.063 5,1.34 C4.521,1.616 4.358,2.228 4.634,2.706 L6.134,5.304 C6.41,5.782 7.021,5.946 7.5,5.67 C7.979,5.394 8.142,4.782 7.866,4.304 L6.366,1.706 Z M13.866,14.696 C13.59,14.218 12.979,14.054 12.5,14.33 C12.021,14.606 11.858,15.218 12.134,15.696 L13.634,18.294 C13.91,18.772 14.521,18.937 15,18.66 C15.479,18.384 15.642,17.772 15.366,17.294 L13.866,14.696 Z M5.67,12.5 C5.394,12.021 4.782,11.858 4.304,12.134 L1.706,13.634 C1.228,13.91 1.063,14.521 1.34,15 C1.616,15.479 2.228,15.642 2.706,15.366 L5.304,13.866 C5.782,13.59 5.946,12.979 5.67,12.5 L5.67,12.5 Z M14.33,7.5 C14.606,7.979 15.218,8.142 15.696,7.866 L18.294,6.366 C18.772,6.09 18.937,5.479 18.66,5 C18.384,4.521 17.772,4.358 17.294,4.634 L14.696,6.134 C14.218,6.41 14.054,7.021 14.33,7.5 L14.33,7.5 Z M1.706,6.366 L4.304,7.866 C4.782,8.142 5.394,7.979 5.67,7.5 C5.946,7.021 5.782,6.41 5.304,6.134 L2.706,4.634 C2.228,4.358 1.616,4.521 1.34,5 C1.063,5.479 1.228,6.09 1.706,6.366 L1.706,6.366 Z M18.294,13.634 L15.696,12.134 C15.218,11.858 14.606,12.021 14.33,12.5 C14.054,12.979 14.218,13.59 14.696,13.866 L17.294,15.366 C17.772,15.642 18.384,15.479 18.66,15 C18.937,14.521 18.772,13.91 18.294,13.634 L18.294,13.634 Z M7.5,14.33 C7.021,14.054 6.41,14.218 6.134,14.696 L4.634,17.294 C4.358,17.772 4.521,18.384 5,18.66 C5.479,18.937 6.09,18.772 6.366,18.294 L7.866,15.696 C8.142,15.218 7.979,14.606 7.5,14.33 L7.5,14.33 Z M12.5,5.67 C12.979,5.946 13.59,5.782 13.866,5.304 L15.366,2.706 C15.642,2.228 15.479,1.616 15,1.34 C14.521,1.063 13.91,1.228 13.634,1.706 L12.134,4.304 C11.858,4.782 12.021,5.394 12.5,5.67 L12.5,5.67 Z" id="indicator"></path>
                            </g>
                        </g>
                    </g>
                </g>
            </g>
        </g>
    </g>
</svg>