<?xml version="1.0" encoding="UTF-8"?>
<svg width="28px" height="28px" viewBox="0 0 28 28" version="1.1" xmlns="http://www.w3.org/2000/svg" xmlns:xlink="http://www.w3.org/1999/xlink">
    <!-- Generator: Sketch 61.2 (89653) - https://sketch.com -->
    <title>87390</title>
    <desc>Created with Sketch.</desc>
    <g id="Symbols" stroke="none" stroke-width="1" fill="none" fill-rule="evenodd">
        <g id="Action-Button" transform="translate(-43.000000, -11.000000)" fill="#FFFFFF" fill-rule="nonzero">
            <g id="87390">
                <g transform="translate(43.000000, 11.000000)">
                    <path d="M19.58496,0 L7.46464,0 C3.34864,0 0,3.3488 0,7.4648 L0,19.58512 C0,23.70128 3.34864,27.04992 7.46464,27.04992 L19.58496,27.04992 C23.70128,27.04992 27.04992,23.70112 27.04992,19.58512 L27.04992,7.4648 C27.04992,3.3488 23.70128,0 19.58496,0 Z M24.65008,19.58512 C24.65008,22.37792 22.37792,24.64992 19.58512,24.64992 L7.46464,24.64992 C4.672,24.64992 2.4,22.37792 2.4,19.58512 L2.4,7.4648 C2.4,4.67216 4.672,2.4 7.46464,2.4 L19.58496,2.4 C22.37776,2.4 24.65008,4.67216 24.65008,7.4648 L24.65008,19.58512 L24.65008,19.58512 Z" id="Shape"></path>
                    <path d="M13.52496,6.5552 C9.6816,6.5552 6.55488,9.68192 6.55488,13.52528 C6.55488,17.36848 9.6816,20.49504 13.52496,20.49504 C17.36832,20.49504 20.49504,17.36848 20.49504,13.52528 C20.49504,9.68192 17.36832,6.5552 13.52496,6.5552 Z M13.52496,18.09488 C11.00512,18.09488 8.95488,16.04496 8.95488,13.52512 C8.95488,11.00512 11.00496,8.95504 13.52496,8.95504 C16.04496,8.95504 18.09504,11.00512 18.09504,13.52512 C18.09504,16.04496 16.0448,18.09488 13.52496,18.09488 Z" id="Shape"></path>
                    <path d="M20.78736,4.52016 C20.32496,4.52016 19.87072,4.70736 19.54416,5.03536 C19.216,5.36176 19.02736,5.81616 19.02736,6.28016 C19.02736,6.74272 19.21616,7.19696 19.54416,7.52496 C19.87056,7.85136 20.32496,8.04016 20.78736,8.04016 C21.25136,8.04016 21.70416,7.85136 22.03216,7.52496 C22.36016,7.19696 22.54736,6.74256 22.54736,6.28016 C22.54736,5.81616 22.36016,5.36176 22.03216,5.03536 C21.70576,4.70736 21.25136,4.52016 20.78736,4.52016 Z" id="Path"></path>
                </g>
            </g>
        </g>
    </g>
</svg>